<svg width="301" height="302" viewBox="0 0 301 302" fill="none" xmlns="http://www.w3.org/2000/svg">
<path d="M292.831 206.278C292.831 206.278 292.739 206.072 292.681 205.981C292.062 204.63 291.384 203.429 290.707 202.284C286.334 195.258 280.802 192.729 277.427 196.803C277.37 196.895 277.312 196.975 277.255 197.032L257.8 160.712C257.914 160.506 258.029 160.3 258.155 160.094C262.264 152.45 263.711 143.135 262.092 137.093L281.49 100.794C285.393 106.389 290.007 108.495 293.209 105.749C293.473 105.543 293.715 105.279 293.944 105.016C294.507 104.341 294.943 103.551 295.321 102.647C297.674 96.9943 296.791 86.9471 292.854 78.3303C292.854 78.3303 292.854 78.273 292.819 78.273C292.234 76.9799 291.58 75.7784 290.937 74.7026C286.529 67.4131 280.882 64.7698 277.45 68.9007C277.416 68.9579 277.358 69.0152 277.335 69.0724L258.971 34.7417C259.062 34.57 259.143 34.4212 259.269 34.2381C263.998 25.4154 265.237 14.3727 262.242 8.75391C262.07 8.39918 261.863 8.07875 261.656 7.79269C261.128 7.06031 260.543 6.4767 259.889 6.06475C256.388 3.8333 251.372 6.4767 247.251 12.8049C246.781 13.5373 246.287 14.3612 245.839 15.1737C245.667 15.5284 245.484 15.8717 245.311 16.2265C241.409 24.0766 240.227 33.4258 242.201 39.1017L222.803 75.3425C218.338 67.5494 212.461 64.6199 208.937 68.8999C208.903 68.9571 208.845 69.0143 208.822 69.0716L190.457 34.7409C190.549 34.5692 190.63 34.4204 190.756 34.2373C195.313 25.7693 196.598 15.287 194.073 9.4512C193.809 8.83325 193.488 8.28397 193.132 7.78048C192.753 7.25408 192.34 6.78492 191.892 6.43016C188.391 3.59222 183.043 6.13264 178.727 12.7927C178.256 13.5251 177.763 14.349 177.315 15.1615C177.143 15.5162 176.959 15.8595 176.787 16.2143C172.701 24.4421 171.587 34.2948 173.998 39.879L154.692 75.9381C150.284 68.5573 144.579 65.8566 141.147 70.022C141.113 70.0792 141.056 70.1364 141.033 70.1708L122.668 35.8401C122.759 35.6684 122.84 35.5196 122.966 35.3365C127.603 26.6969 128.877 15.9172 126.111 10.2071C125.881 9.73788 125.64 9.30306 125.342 8.89108C124.906 8.25026 124.378 7.74677 123.838 7.33479C120.338 4.81724 115.138 7.42634 110.937 13.8919C110.466 14.6242 109.973 15.4482 109.525 16.2606C109.353 16.6154 109.169 16.9587 108.997 17.3134C105.003 25.3695 103.855 34.9475 106.025 40.6005L87.8318 74.5885C83.4242 67.1734 77.6967 64.4498 74.2532 68.615C74.2187 68.6722 74.1613 68.7294 74.1384 68.7866L55.7734 34.4559C55.8653 34.2843 55.9456 34.1355 56.0719 33.9524C60.8582 25.0725 62.0403 13.9496 58.9758 8.31937C58.8266 8.02185 58.6544 7.73576 58.4708 7.49545C57.9083 6.70587 57.3 6.12225 56.5884 5.71028C53.0876 3.60471 48.129 6.27101 44.0429 12.5076C43.5723 13.24 43.0788 14.0639 42.6311 14.8763C42.4589 15.2311 42.2753 15.5744 42.1031 15.9291C38.2235 23.7222 37.0182 32.9454 38.9581 38.667L19.2962 75.3999C14.8886 68.019 9.18402 65.3183 5.75198 69.4838C5.71754 69.541 5.66016 69.5982 5.6372 69.6554C4.86816 70.651 4.25983 71.9097 3.8466 73.3744C2.20525 79.1991 3.22678 88.2849 6.84229 96.1694C7.0489 96.6385 7.27847 97.0734 7.48507 97.5197C8.10489 98.7556 8.7821 99.8884 9.45931 100.918C13.4308 106.892 18.2401 109.181 21.5114 106.366L41.0241 142.811C36.846 151.279 35.8246 161.418 38.5219 166.888L19.2158 202.947C14.8082 195.567 9.10359 192.9 5.67155 197.031C5.61416 197.123 5.55677 197.203 5.49938 197.26C4.73034 198.256 4.14496 199.549 3.73176 201.037C2.11335 206.861 3.20376 215.89 6.76183 223.706C6.96844 224.175 7.198 224.61 7.4046 225.056C8.02443 226.292 8.70164 227.425 9.37885 228.455C13.3504 234.405 18.1023 236.717 21.3619 233.959L40.4614 269.617C36.3177 278.199 35.4109 288.396 38.2576 293.728C38.4298 294.049 38.6135 294.346 38.8201 294.632C39.3481 295.399 39.9679 295.982 40.6451 296.394C43.813 298.363 48.2205 296.394 52.0772 291.302C52.7773 290.364 53.489 289.277 54.1662 288.144C54.3384 287.846 54.4876 287.56 54.6713 287.263C58.9872 279.241 60.3758 269.365 58.3442 263.392L77.4094 227.734C81.4955 234.474 86.6033 237.221 90.0698 234.326L109.169 269.983C105.29 278.039 104.234 287.526 106.495 293.064C106.793 293.763 107.115 294.415 107.528 294.964C107.849 295.433 108.228 295.845 108.618 296.166C111.821 298.946 116.607 297.07 120.785 291.6C121.485 290.661 122.197 289.574 122.874 288.441C123.046 288.144 123.195 287.858 123.379 287.56C127.959 279.001 129.256 268.404 126.616 262.603L145.888 226.625C149.974 233.514 155.208 236.375 158.697 233.423L177.797 269.081C173.975 276.988 172.884 286.303 175.008 291.875C175.329 292.699 175.708 293.432 176.156 294.073C176.454 294.485 176.741 294.805 177.062 295.125C180.265 298.146 185.177 296.327 189.401 290.731C190.101 289.793 190.813 288.706 191.49 287.573C191.662 287.275 191.812 286.989 191.995 286.692C196.575 278.132 197.872 267.535 195.232 261.757L213.092 228.366C217.144 234.992 222.229 237.681 225.672 234.809L244.771 270.467C240.835 278.614 239.801 288.215 242.154 293.731C242.418 294.372 242.74 294.967 243.119 295.493C243.532 296.054 243.945 296.523 244.416 296.901C247.618 299.418 252.29 297.519 256.341 292.152C257.041 291.213 257.753 290.126 258.43 288.994C258.602 288.696 258.752 288.41 258.935 288.112C263.435 279.736 264.755 269.334 262.31 263.475L281.352 227.887C285.347 234.044 290.202 236.47 293.519 233.689C293.783 233.46 294.081 233.186 294.311 232.865C294.839 232.224 295.275 231.458 295.665 230.611C298.076 224.958 297.192 214.853 293.255 206.18L292.831 206.278ZM222.25 202.559C217.992 196.231 212.792 194.125 209.556 198.016C209.498 198.108 209.441 198.188 209.384 198.245L189.928 161.925C190.043 161.719 190.158 161.513 190.284 161.307C194.783 152.953 196.103 142.586 193.693 136.727L212.884 100.876C216.787 106.472 221.401 108.577 224.604 105.831L244.116 142.276C239.915 150.802 238.917 161.021 241.683 166.445L222.262 202.56L222.25 202.559ZM142.649 196.643C142.649 196.643 142.535 196.815 142.477 196.872L123.022 160.552C123.137 160.346 123.251 160.14 123.378 159.934C127.935 151.5 129.22 140.984 126.695 135.182L144.704 101.528C148.676 107.502 153.485 109.79 156.756 106.975L176.269 143.421C172.183 151.74 171.092 161.639 173.629 167.177L155.379 201.245C151.086 194.859 145.886 192.754 142.661 196.644L142.649 196.643ZM74.1027 197.524C74.1027 197.524 73.9879 197.696 73.9305 197.753L54.4752 161.433C54.5899 161.227 54.7047 161.021 54.831 160.815C59.2386 152.61 60.5929 142.506 58.3547 136.59L77.8101 100.235C81.7816 106.185 86.5679 108.44 89.8275 105.624L109.34 142.07C105.288 150.298 104.198 160.082 106.608 165.655L86.9808 202.364C82.6649 195.83 77.3737 193.61 74.1139 197.535L74.1027 197.524ZM244.115 42.5481C247.352 45.8895 252.517 43.9556 256.867 38.0051L275.496 72.8396C273.855 78.6643 274.876 87.7502 278.492 95.6346C278.698 96.0465 278.87 96.4585 279.077 96.8705C279.169 97.0193 279.226 97.168 279.307 97.3053L260.115 133.227C260.115 133.227 259.909 132.964 259.794 132.849C256.293 129.222 250.6 131.762 246.009 138.823L226.68 102.708C228.975 97.2037 228.183 87.4997 224.533 79.066L244.069 42.5616L244.115 42.5481ZM176.027 42.983C179.287 45.6836 184.142 43.6581 188.308 38.0052L206.937 72.8398C205.296 78.6645 206.317 87.7503 209.933 95.6347C210.231 96.3099 210.553 96.9507 210.874 97.5687L191.568 133.628C188.044 130.584 182.58 133.159 178.196 139.99L158.867 103.876C161.22 98.2225 160.336 88.1981 156.433 79.6159L176.038 42.9972L176.027 42.983ZM107.915 43.9213C111.175 46.9422 116.168 44.9741 120.437 39.1495L139.066 73.984C137.425 79.8088 138.446 88.8946 142.062 96.779C142.268 97.2482 142.498 97.683 142.705 98.1293L124.489 132.173C120.965 129.301 115.582 131.91 111.232 138.615L91.9027 102.501C94.2557 96.8705 93.3719 86.8921 89.4924 78.2981L107.892 43.9352L107.915 43.9213ZM23.4125 103.369C25.7655 97.7164 24.8817 87.692 20.9792 79.1098L40.6984 42.2626C43.9354 45.7528 49.1349 43.8189 53.5424 37.8113L72.1712 72.6459C70.5299 78.4706 71.5514 87.5564 75.1669 95.4408C75.3965 95.9443 75.6031 96.3792 75.8441 96.8483L56.3085 133.353C52.8078 130.011 47.1948 132.563 42.73 139.509L23.4009 103.395L23.4125 103.369ZM56.0904 260.062C52.5667 256.366 46.7128 258.975 42.133 266.276L23.263 231.031C25.6734 225.401 24.7896 215.297 20.887 206.657L40.6063 169.833C43.8432 172.088 48.4573 170.039 52.4515 164.649L72.194 201.532C70.5756 207.356 71.666 216.385 75.224 224.201C75.224 224.235 75.2585 224.258 75.2814 224.315L56.1246 260.111L56.0904 260.062ZM124.088 259.799C120.53 257.041 115.123 259.799 110.808 266.619L91.9376 231.374C94.348 225.721 93.4641 215.617 89.5272 206.943C89.355 206.531 89.1484 206.153 88.9647 205.741L108.799 168.654C112.036 171.32 116.845 169.329 120.988 163.756L140.731 200.639C139.147 206.44 140.169 215.377 143.669 223.136L124.042 259.79L124.088 259.799ZM160.518 230.504C162.928 224.851 162.044 214.747 158.107 206.073C157.878 205.569 157.637 205.111 157.407 204.642L175.887 170.13C179.124 172.647 183.876 170.633 187.962 165.118L207.705 202C206.086 207.825 207.177 216.853 210.735 224.669C210.735 224.704 210.769 224.727 210.792 224.761L192.599 258.769C192.599 258.769 192.657 258.884 192.691 258.918C192.634 258.861 192.576 258.804 192.485 258.747C188.926 256.252 183.635 258.975 179.411 265.715L160.541 230.471L160.518 230.504ZM259.689 260.382C256.13 257.51 250.667 260.21 246.316 267.122L227.446 231.877C229.857 226.224 228.973 216.12 225.036 207.446C224.864 207.034 224.657 206.622 224.451 206.244L244.17 169.567C244.055 169.396 243.963 169.212 243.849 169.041C243.963 169.132 244.055 169.212 244.17 169.304C247.407 171.329 251.895 169.27 255.809 164.006L275.551 200.888C273.933 206.713 275.023 215.741 278.581 223.557C278.73 223.855 278.845 224.141 278.994 224.404L259.723 260.405L259.689 260.382Z" fill="black"/>
</svg>
